<svg xmlns="http://www.w3.org/2000/svg" viewBox="0 0 24 24"><title>alarm</title><path fill="currentColor" d="M13,10v3a1,1,0,0,1-1,1H9a1,1,0,0,1,0-2h2V10a1,1,0,0,1,2,0Zm7,3a8.07,8.07,0,0,1-1.68,4.91l2.4,2.4a1,1,0,0,1,0,1.39,1,1,0,0,1-1.44,0l-2.37-2.36A7.85,7.85,0,0,1,12,21a8.07,8.07,0,0,1-4.91-1.68L4.7,21.7a1,1,0,0,1-1.39,0,1,1,0,0,1,0-1.4L5.69,17.9A8.08,8.08,0,0,1,4,13a8,8,0,0,1,16,0ZM6,13a6,6,0,1,0,6-6A6,6,0,0,0,6,13ZM7,2A5,5,0,0,0,2,7a4.88,4.88,0,0,0,.44,2,1,1,0,0,0,1.81-.81A3,3,0,0,1,7,4a3.12,3.12,0,0,1,1.53.4,1,1,0,0,0,1.35-.34,1,1,0,0,0-.35-1.37A5,5,0,0,0,7,2ZM17,2a5,5,0,0,0-2.53.69,1,1,0,0,0-.35,1.37,1,1,0,0,0,1.35.34A3.12,3.12,0,0,1,17,4a3,3,0,0,1,2.75,4.22A1,1,0,0,0,21.56,9,4.88,4.88,0,0,0,22,7,5,5,0,0,0,17,2Z" /></svg>