<svg xmlns="http://www.w3.org/2000/svg" viewBox="0 0 24 24"><title>bell</title><path fill="#212121" d="M12,2A5.72,5.72,0,0,0,6,8v3c0,.32-.17.54-.72,1l-.4.38A4.26,4.26,0,0,0,3,16c0,1.35,1.06,1.83,2.69,2,.4,0,.73,0,1.31,0H17c.58,0,.91,0,1.31,0,1.63-.14,2.69-.62,2.69-2a4.34,4.34,0,0,0-1.88-3.66L18.69,12c-.55-.45-.69-.68-.69-1V8A5.72,5.72,0,0,0,12,2Zm0,2a3.73,3.73,0,0,1,4,4v3a3.07,3.07,0,0,0,1.41,2.53l.47.38A2.45,2.45,0,0,1,19,15.81a3.28,3.28,0,0,1-.85.16c-.32,0-.59,0-1.12,0H7c-.53,0-.8,0-1.12,0A3.28,3.28,0,0,1,5,15.81a2.45,2.45,0,0,1,1.09-1.9l.44-.38A3.07,3.07,0,0,0,8,11V8A3.73,3.73,0,0,1,12,4ZM10.5,19.31A2,2,0,0,0,12,20a2,2,0,0,0,1.5-.66A1,1,0,0,1,15,20.66,4,4,0,0,1,12,22a3.94,3.94,0,0,1-3-1.38,1,1,0,1,1,1.5-1.31Z"/></svg>