<svg xmlns="http://www.w3.org/2000/svg" viewBox="0 0 24 24"><title>bluetooth</title><path fill="#212121" d="M6.56,7.16l3,2a1,1,0,1,1-1.09,1.66l-3-2a1,1,0,0,1-.28-1.41A1,1,0,0,1,5.81,7,1,1,0,0,1,6.56,7.16Zm6-5,4.87,3.5a2.59,2.59,0,0,1-.15,4.53l-3.1,1.91,3.19,1.81a2.41,2.41,0,0,1,.22,4.28l-5,3.6A1,1,0,0,1,11,21V14.1L6.53,16.85a1,1,0,0,1-1.37-.31,1,1,0,0,1,.31-1.38L11,11.75V3a1,1,0,0,1,.53-.88A1,1,0,0,1,12.6,2.19Zm.4,8.34,3.29-2c.6-.37.6-.77,0-1.19L13,4.94Zm0,8.54,3.44-2.47c.49-.35.5-.64,0-.94L13,13.72Z"/></svg>