<svg xmlns="http://www.w3.org/2000/svg" viewBox="0 0 24 24"><title>calendar</title><path fill="#212121" d="M4,13v5a2,2,0,0,0,2,2H18a2,2,0,0,0,2-2V13a1,1,0,0,1,2,0v5a4,4,0,0,1-4,4H6a4,4,0,0,1-4-4V13a1,1,0,0,1,2,0Zm11,1h0a1,1,0,0,0,1,1h0a1,1,0,0,0,1-1h0a1,1,0,0,0-1-1h0A1,1,0,0,0,15,14Zm-4,0h0a1,1,0,0,0,1,1h0a1,1,0,0,0,1-1h0a1,1,0,0,0-1-1h0A1,1,0,0,0,11,14ZM7,14H7a1,1,0,0,0,1,1H8a1,1,0,0,0,1-1H9a1,1,0,0,0-1-1H8A1,1,0,0,0,7,14Zm4,3h0a1,1,0,0,0,1,1h0a1,1,0,0,0,1-1h0a1,1,0,0,0-1-1h0A1,1,0,0,0,11,17ZM7,17H7a1,1,0,0,0,1,1H8a1,1,0,0,0,1-1H9a1,1,0,0,0-1-1H8A1,1,0,0,0,7,17Zm8,0h0a1,1,0,0,0,1,1h0a1,1,0,0,0,1-1h0a1,1,0,0,0-1-1h0A1,1,0,0,0,15,17ZM9,3h6a1,1,0,0,1,2,0h1a4,4,0,0,1,4,4V9a1,1,0,0,1-1,1H3A1,1,0,0,1,2,9V7A4,4,0,0,1,6,3H7A1,1,0,0,1,9,3ZM4,7V8H20V7a2,2,0,0,0-2-2H17a1,1,0,0,1-2,0H9A1,1,0,0,1,7,5H6A2,2,0,0,0,4,7Z"/></svg>