<svg xmlns="http://www.w3.org/2000/svg" viewBox="0 0 24 24"><title>cloud-download</title><path fill="#212121" d="M18,8V9.09a4.65,4.65,0,0,1,4,4.4,4.61,4.61,0,0,1-3.75,4.38,1,1,0,0,1-.47-2A2.64,2.64,0,0,0,20,13.49,2.8,2.8,0,0,0,17,11a1,1,0,0,1-1-1V8A4,4,0,0,0,8,8v.06a1,1,0,0,1-.91,1A3.34,3.34,0,0,0,4,12.37a3.7,3.7,0,0,0,2.34,3.47A1,1,0,0,1,7,17.12a1,1,0,0,1-1.25.59A5.68,5.68,0,0,1,2,12.37,5.29,5.29,0,0,1,6.06,7.22,6,6,0,0,1,18,8Zm-6,4a1,1,0,0,0-1,1v5.56l-.28-.28a1,1,0,0,0-1.44,1.44l2,2a1,1,0,0,0,1.44,0l2-2a1,1,0,0,0-1.44-1.44l-.28.28V13A1,1,0,0,0,12,12Z"/></svg>