<svg xmlns="http://www.w3.org/2000/svg" viewBox="0 0 24 24"><title>eye-slash</title><path fill="#212121" class="ff62c12d-28b4-4cc0-bda0-389fcb6d616c" d="M20.6,9.25a13.28,13.28,0,0,1,1.32,2.34,1,1,0,0,1,0,.81,10.87,10.87,0,0,1-.6,1.19,16.39,16.39,0,0,1-1.81,2.56A9.8,9.8,0,0,1,12,20a12.39,12.39,0,0,1-1.57-.16,1,1,0,0,1,.29-2A10.11,10.11,0,0,0,12,18a8,8,0,0,0,6-3.15,14.88,14.88,0,0,0,1.56-2.25,5.9,5.9,0,0,0,.31-.6,1.56,1.56,0,0,0-.06-.15A14.8,14.8,0,0,0,19,10.37,1,1,0,0,1,19.2,9,1,1,0,0,1,20,8.84,1,1,0,0,1,20.6,9.25ZM17,5.58l1.3-1.29A1,1,0,0,1,19,4a1.07,1.07,0,0,1,.72.29,1,1,0,0,1,0,1.42l-4.86,4.88L10.59,14.8,5.71,19.71a1,1,0,0,1-1.44,0,1,1,0,0,1,0-1.41l1.14-1.16a15.86,15.86,0,0,1-2.75-3.55,8.67,8.67,0,0,1-.6-1.19,1,1,0,0,1,0-.81,10.87,10.87,0,0,1,.6-1.19A16.39,16.39,0,0,1,4.49,7.84,9.8,9.8,0,0,1,12,4,8.92,8.92,0,0,1,17,5.58ZM6,9.15A14.88,14.88,0,0,0,4.43,11.4c-.16.27-.22.41-.31.59a5.9,5.9,0,0,0,.31.6A14.88,14.88,0,0,0,6,14.84a11.9,11.9,0,0,0,.86.88L8.54,14A4.17,4.17,0,0,1,8,12a4,4,0,0,1,4-4,4.21,4.21,0,0,1,2,.55L15.55,7A6.91,6.91,0,0,0,12,6,8,8,0,0,0,6,9.15ZM10,12a1.43,1.43,0,0,0,.07.52l2.44-2.44A1.57,1.57,0,0,0,12,10,2,2,0,0,0,10,12Z"/></svg>