<svg xmlns="http://www.w3.org/2000/svg" viewBox="0 0 24 24"><title>eye</title><path fill="#212121" d="M13.42,8.25a1,1,0,1,1-.69,1.87A2.13,2.13,0,0,0,12,10a2,2,0,1,0,2,2,1,1,0,0,1,2,0,4,4,0,1,1-4-4A4,4,0,0,1,13.42,8.25Zm6.1-.41a16.74,16.74,0,0,1,1.82,2.57,11.4,11.4,0,0,1,.59,1.18,1.06,1.06,0,0,1,0,.82,11.4,11.4,0,0,1-.59,1.18,16.74,16.74,0,0,1-1.82,2.57A9.78,9.78,0,0,1,12,20,9.8,9.8,0,0,1,4.5,16.16a16.66,16.66,0,0,1-1.81-2.57,12,12,0,0,1-.6-1.18,1.16,1.16,0,0,1,0-.82,12,12,0,0,1,.6-1.18A16.66,16.66,0,0,1,4.5,7.84,9.8,9.8,0,0,1,12,4,9.78,9.78,0,0,1,19.52,7.84ZM6,9.16a13.82,13.82,0,0,0-1.57,2.25c-.15.27-.22.41-.31.59.09.18.16.32.31.59A13.82,13.82,0,0,0,6,14.84,7.9,7.9,0,0,0,12,18a7.9,7.9,0,0,0,6-3.16,14.47,14.47,0,0,0,1.57-2.25c.15-.27.22-.41.31-.59-.09-.18-.16-.32-.31-.59A14.47,14.47,0,0,0,18,9.16,7.9,7.9,0,0,0,12,6,7.9,7.9,0,0,0,6,9.16Z"/></svg>