<svg xmlns="http://www.w3.org/2000/svg" viewBox="0 0 24 24"><title>gear</title><path fill="#212121" d="M15,2.45a1,1,0,0,0-1.13.44,2.1,2.1,0,0,1-3.72,0A1,1,0,0,0,9,2.48,9.66,9.66,0,0,0,5.25,4.64,1,1,0,0,0,5,5.86,2.08,2.08,0,0,1,3.19,9a1,1,0,0,0-.94.75A8.94,8.94,0,0,0,2,12a10.27,10.27,0,0,0,.22,2.13,1,1,0,0,0,.9.78A2.18,2.18,0,0,1,5,18.26a1,1,0,0,0,.22,1.13A9.48,9.48,0,0,0,9,21.54a1,1,0,0,0,1.12-.37c1.12-1.54,2.73-1.58,3.79,0a1,1,0,0,0,1.12.4,10,10,0,0,0,3.75-2.15A1,1,0,0,0,19,18.2,2.08,2.08,0,0,1,20.81,15a1,1,0,0,0,1-.78A8.74,8.74,0,0,0,22,12a10.35,10.35,0,0,0-.25-2.22,1,1,0,0,0-1-.78A2.06,2.06,0,0,1,19,5.86a1,1,0,0,0-.19-1.22A10.26,10.26,0,0,0,15,2.45Zm-6,2.16a4,4,0,0,0,6.1,0,7,7,0,0,1,1.85,1.06,4,4,0,0,0,3,5.25,9.64,9.64,0,0,1,0,2.14,4,4,0,0,0-3.08,5.29,6.35,6.35,0,0,1-1.82,1,4,4,0,0,0-6.08,0,6.32,6.32,0,0,1-1.84-1.06,4,4,0,0,0-3-5.28,8.13,8.13,0,0,1,0-2.15A4,4,0,0,0,7.12,5.67,7.17,7.17,0,0,1,8.94,4.61ZM12,8a4,4,0,1,0,4,4A4,4,0,0,0,12,8Zm0,2a2,2,0,1,1-2,2A2,2,0,0,1,12,10Z"/></svg>