<svg xmlns="http://www.w3.org/2000/svg" viewBox="0 0 24 24"><title>hourglass</title><path fill="#212121" d="M14,16a1,1,0,0,1,0,2H10a1,1,0,1,1,0-2ZM16,2a4,4,0,0,1,4,4V7a4.54,4.54,0,0,1-.81,2.41L17.28,12l1.94,2.59A4.61,4.61,0,0,1,20,17v1a4,4,0,0,1-4,4H8a4,4,0,0,1-4-4V17a4.61,4.61,0,0,1,.85-2.5L6.76,12,4.81,9.41A4.48,4.48,0,0,1,4,7L4,6A4,4,0,0,1,8,2ZM6,6,6,7a2.65,2.65,0,0,0,.41,1.22l2.41,3.19a1,1,0,0,1,0,1.18l-2.35,3.1A2.68,2.68,0,0,0,6,17V18a2,2,0,0,0,2,2h8a2,2,0,0,0,2-2V17a2.68,2.68,0,0,0-.41-1.22l-2.38-3.22a1,1,0,0,1,0-1.18l2.38-3.19A2.54,2.54,0,0,0,18,7V6a2,2,0,0,0-2-2H8A2,2,0,0,0,6,6Z"/></svg>