<svg xmlns="http://www.w3.org/2000/svg" viewBox="0 0 24 24"><title>image</title><path fill="#212121" d="M6,2A4,4,0,0,0,2,6V18a4,4,0,0,0,4,4H18a4,4,0,0,0,4-4V6a4,4,0,0,0-4-4ZM6,4H18a2,2,0,0,1,2,2v8.74A4.13,4.13,0,0,0,17,13c-1.29,0-2.45.92-3.56,2.41-.06.07-.07.11-.13.19q-.35-1-.78-2C11.28,10.74,9.88,9,8,9c-1.63,0-2.92,1.38-4,3.45V6A2,2,0,0,1,6,4Zm2,7c.75,0,1.78,1.26,2.72,3.41a26.78,26.78,0,0,1,1,2.65c.1.32.33,1.14.34,1.19a1,1,0,0,0,1.88.19c.05-.11.16-.3.31-.56a13.57,13.57,0,0,1,.84-1.29c.76-1,1.48-1.59,1.94-1.59s1.18.58,1.94,1.59a15.58,15.58,0,0,1,1,1.64,2,2,0,0,1-.63,1.25A2,2,0,0,1,18,20H6a2,2,0,0,1-1.41-.59A2,2,0,0,1,4,18.06c.06-.22.2-.73.28-1a26.78,26.78,0,0,1,1-2.65C6.22,12.26,7.25,11,8,11Zm7-3a1,1,0,1,1,1,1A1,1,0,0,1,15,8Z"/></svg>