<svg xmlns="http://www.w3.org/2000/svg" viewBox="0 0 24 24"><title>key</title><path fill="#212121" d="M14.29,8.29a1,1,0,1,1,0,1.42A1,1,0,0,1,14.29,8.29ZM22,10.91a1,1,0,0,1-.28.81l-3.88,3.87a3.81,3.81,0,0,1-3.65.85,1.83,1.83,0,0,0-1.6.37L7.72,21.72A1,1,0,0,1,7,22H6a4,4,0,0,1-4-4V17a1,1,0,0,1,.28-.72l4.91-4.87a1.45,1.45,0,0,0,.37-1.6,3.81,3.81,0,0,1,.85-3.65l3.87-3.88A1,1,0,0,1,13.09,2,9.88,9.88,0,0,1,22,10.91ZM9.84,7.59a1.84,1.84,0,0,0-.4,1.6,5.47,5.47,0,0,1,.22,1.59,3.7,3.7,0,0,1-1.07,2L4,17.44V18a2,2,0,0,0,2,2h.56l4.63-4.59a3.91,3.91,0,0,1,2.15-1,4.09,4.09,0,0,1,1.47.15,1.84,1.84,0,0,0,1.6-.4l3.47-3.47a7.76,7.76,0,0,0-6.57-6.57Z"/></svg>