<svg xmlns="http://www.w3.org/2000/svg" viewBox="0 0 24 24"><title>mail</title><path fill="#212121" class="af82ade0-be97-4b4a-8977-f48161edb03a" d="M4,13v5a2,2,0,0,0,2,2H18a2,2,0,0,0,2-2V13a1,1,0,0,1,2,0v5a4,4,0,0,1-4,4H6a4,4,0,0,1-4-4V13a1,1,0,0,1,2,0ZM18,3a4,4,0,0,1,4,4c0,.53-.31.86-1,1.61a39.16,39.16,0,0,1-7,5.69,4.51,4.51,0,0,1-2,.7,4.46,4.46,0,0,1-2-.71A39.18,39.18,0,0,1,3,8.64a6.53,6.53,0,0,1-.9-1.12A1.09,1.09,0,0,1,2,7,4,4,0,0,1,6,3ZM4,6.74c.18.2.52.54.83.85.71.7,1.63,1.56,2.57,2.35C9.56,11.76,11.46,13,12,13s2.44-1.24,4.59-3.06c.94-.79,1.86-1.65,2.57-2.35.31-.31.65-.63.82-.84A2,2,0,0,0,18,5H6A2,2,0,0,0,4,6.74Z"/></svg>