<svg xmlns="http://www.w3.org/2000/svg" viewBox="0 0 24 24"><title>paperclip2</title><path fill="#212121" d="M14.84,2a1,1,0,0,0-.71.3C12.47,3.87,12,5.14,12.6,6.83A5.4,5.4,0,0,1,8.69,8.12c-1.7,0-3.45,0-4.81,1.34a2.43,2.43,0,0,0,0,3.44l2.88,2.87-4.48,4.5A1,1,0,0,0,3.75,21.7L8.2,17.22l2.87,2.85a2.44,2.44,0,0,0,3.45,0c1-1,1.34-2.33,1.34-4.81a5.29,5.29,0,0,1,1.31-3.89c1.68.61,3,0,4.54-1.51A1.08,1.08,0,0,0,22,9.14a5.28,5.28,0,0,0-.32-1.59,8.07,8.07,0,0,0-2-3.21,8.22,8.22,0,0,0-3.21-2A5.39,5.39,0,0,0,14.84,2Zm.37,2.09a5.8,5.8,0,0,1,3,1.67,6.14,6.14,0,0,1,1.73,3,1.87,1.87,0,0,1-2.58.48,1,1,0,0,0-1.17.2,7.66,7.66,0,0,0-2.34,5.82c0,2-.21,2.88-.74,3.38a.41.41,0,0,1-.57,0L5.32,11.47c-.16-.16-.18-.46.15-.71.56-.41,1.28-.59,3.24-.6a7.77,7.77,0,0,0,5.77-2.27,1.06,1.06,0,0,0,.27-1.24C14.22,5.61,14.28,5.08,15.21,4.09Z"/></svg>