<svg xmlns="http://www.w3.org/2000/svg" viewBox="0 0 24 24"><title>sliders</title><path fill="#212121" d="M16,2a4,4,0,0,0-3.87,3H3A1,1,0,0,0,3,7h9.12a4,4,0,0,0,7.76,0H21a1,1,0,0,0,0-2H19.87A4,4,0,0,0,16,2Zm0,2a2,2,0,1,1-2,2A2,2,0,0,1,16,4ZM8,8a4,4,0,0,0-3.87,3H3a1,1,0,0,0,0,2H4.12A4,4,0,0,0,8,16a4,4,0,0,0,3.88-3H21a1,1,0,0,0,0-2H11.87A4,4,0,0,0,8,8Zm0,2a2,2,0,1,1-2,2A2,2,0,0,1,8,10Zm8,4a4,4,0,0,0-3.87,3H3a1,1,0,0,0,0,2h9.12a4,4,0,0,0,7.76,0H21a1,1,0,0,0,0-2H19.87A4,4,0,0,0,16,14Zm0,2a2,2,0,1,1-2,2A2,2,0,0,1,16,16Z"/></svg>