<svg xmlns="http://www.w3.org/2000/svg" viewBox="0 0 24 24"><title>toggles</title><path fill="#212121" d="M17.5,2a4.54,4.54,0,0,0-2.83,1H5.5a3.5,3.5,0,0,0,0,7h9.18A4.5,4.5,0,1,0,17.5,2Zm0,2A2.5,2.5,0,1,1,15,6.5,2.5,2.5,0,0,1,17.5,4ZM5.5,5h7.77A4.78,4.78,0,0,0,13,6.5,4.38,4.38,0,0,0,13.27,8H5.5a1.5,1.5,0,0,1,0-3Zm1,8a4.5,4.5,0,0,0,0,9,4.65,4.65,0,0,0,2.82-1H18.5a3.5,3.5,0,0,0,0-7H9.34A4.55,4.55,0,0,0,6.5,13Zm0,2a2.5,2.5,0,0,1,1.76,4.28A2.47,2.47,0,0,1,6.5,20a2.5,2.5,0,0,1,0-5Zm4.22,1H18.5a1.5,1.5,0,0,1,0,3H10.73A4,4,0,0,0,11,17.5,4.39,4.39,0,0,0,10.72,16Z"/></svg>