<svg xmlns="http://www.w3.org/2000/svg" viewBox="0 0 24 24"><title>wifi</title><path fill="#212121" d="M16.11,12.16a1,1,0,0,1-1.63,1.12,3,3,0,0,0-5,0,1,1,0,0,1-1.63-1.12,5,5,0,0,1,8.22,0ZM12,6A9.08,9.08,0,0,0,5.07,9.22a1,1,0,0,0,.13,1.4,1,1,0,0,0,1.41-.12,7.06,7.06,0,0,1,10.78,0,1,1,0,0,0,1.41.12,1,1,0,0,0,.13-1.4A9.08,9.08,0,0,0,12,6Zm0-4A13,13,0,0,0,2.25,6.34a1,1,0,0,0,.09,1.44,1,1,0,0,0,1.41-.09,11.07,11.07,0,0,1,16.5,0,1,1,0,0,0,1.41.09,1,1,0,0,0,.09-1.4A13,13,0,0,0,12,2Zm2.07,13,2.51,3.59A2,2,0,0,1,14.82,22H9.18a2,2,0,0,1-1.76-3.38L9.93,15A2.56,2.56,0,0,1,12,13.84,2.56,2.56,0,0,1,14.07,15Zm-2.51,1.13L9.05,19.78c-.23.33-.28.22.13.22h5.64c.41,0,.36.11.13-.22l-2.51-3.62c-.15-.21-.3-.32-.44-.32S11.71,16,11.56,16.16Z"/></svg>