<svg xmlns="http://www.w3.org/2000/svg" viewBox="0 0 24 24"><title>bluetooth-fill</title><path fill="#212121" d="M6.59,7.15l3,2a1,1,0,0,1,.28,1.38,1,1,0,0,1-1.39.28l-3.07-2a1,1,0,0,1-.28-1.41A1,1,0,0,1,5.83,7,1,1,0,0,1,6.59,7.15Zm6.11-5,4.93,3.5a2.57,2.57,0,0,1-.16,4.53l-3.13,1.91,3.23,1.81a2.41,2.41,0,0,1,.22,4.29L12.7,21.81A1,1,0,0,1,11.08,21V14.09L6.56,16.84a1,1,0,0,1-1.39-.31,1,1,0,0,1,.31-1.38l5.6-3.4V3a1,1,0,0,1,.54-.87A1.05,1.05,0,0,1,12.7,2.18Zm.41,8.35,3.32-2c.61-.38.62-.78,0-1.19L13.11,4.93Zm0,8.53,3.48-2.47c.5-.35.5-.64,0-.94l-3.45-1.93Z"/></svg>