<svg xmlns="http://www.w3.org/2000/svg" viewBox="0 0 24 24"><title>cloud-download-fill</title><path fill="#212121" d="M12,2A5.91,5.91,0,0,0,6.16,7.25,5.28,5.28,0,0,0,2,12.37,5.6,5.6,0,0,0,7,18a3.7,3.7,0,0,1,3-2h1V10a1,1,0,0,1,2,0v6h1a3.7,3.7,0,0,1,3,2,4.77,4.77,0,0,0,5-4.5,4.58,4.58,0,0,0-4-4.31V8A6,6,0,0,0,12,2Z"/><path fill="#212121" d="M18,8V9.18a4.58,4.58,0,0,1,4,4.31A4.77,4.77,0,0,1,17,18a3.7,3.7,0,0,0-3-2H13V10a1,1,0,0,0-2,0v6H10a3.7,3.7,0,0,0-3,2,5.6,5.6,0,0,1-5-5.62A5.28,5.28,0,0,1,6.16,7.25,5.91,5.91,0,0,1,12,2,6,6,0,0,1,18,8Zm-7,8v2H10a1,1,0,0,0-.72,1.72l2,2a1,1,0,0,0,1.44,0l2-2a1,1,0,0,0,0-1.44A1.3,1.3,0,0,0,14,18a5.91,5.91,0,0,0-1,0V16Z"/></svg>