<svg xmlns="http://www.w3.org/2000/svg" viewBox="0 0 24 24"><title>gear-fill</title><path fill="#212121" d="M9,2.47A9.85,9.85,0,0,0,5.22,4.62,1,1,0,0,0,5,5.84,2.08,2.08,0,0,1,3.16,9a1,1,0,0,0-.91.78A8.6,8.6,0,0,0,2,12a10.92,10.92,0,0,0,.25,2.15,1,1,0,0,0,.87.79A2.18,2.18,0,0,1,5,18.25a1,1,0,0,0,.22,1.16A9.54,9.54,0,0,0,9,21.53a1,1,0,0,0,1.12-.37c1.12-1.55,2.76-1.58,3.82,0a1,1,0,0,0,1.12.41,9.94,9.94,0,0,0,3.72-2.15A1,1,0,0,0,19,18.19,2.08,2.08,0,0,1,20.81,15a1,1,0,0,0,.94-.75A9,9,0,0,0,22,12a10.28,10.28,0,0,0-.25-2.22,1,1,0,0,0-1-.78A2,2,0,0,1,19,5.84a1,1,0,0,0-.19-1.22A10.15,10.15,0,0,0,15,2.47a1,1,0,0,0-1.13.41,2.1,2.1,0,0,1-3.72,0A1,1,0,0,0,9,2.47ZM12,8a4,4,0,1,1-4,4A4,4,0,0,1,12,8Z"/></svg>