<svg xmlns="http://www.w3.org/2000/svg" viewBox="0 0 24 24"><title>image-fill</title><path fill="#212121" d="M6,2A4,4,0,0,0,2,6V18a4,4,0,0,0,4,4H18a4,4,0,0,0,4-4V6a4,4,0,0,0-4-4ZM16,5a3,3,0,1,1-3,3A3,3,0,0,1,16,5ZM8,11c.75,0,1.78,1.26,2.72,3.41a24.47,24.47,0,0,1,1,2.65c.1.32.33,1.14.34,1.19a1,1,0,0,0,1.88.19c.05-.11.16-.3.31-.56a13.57,13.57,0,0,1,.84-1.29c.76-1,1.48-1.59,1.94-1.59s1.18.58,1.94,1.59a13.57,13.57,0,0,1,.84,1.29l.16.28A2,2,0,0,1,18,20H6a2,2,0,0,1-2-1.94c.06-.22.2-.73.28-1a24.47,24.47,0,0,1,1-2.65C6.24,12.26,7.27,11,8,11Z"/></svg>