<svg xmlns="http://www.w3.org/2000/svg" viewBox="0 0 24 24"><title>paperclip2-fill</title><path fill="#212121" d="M16.44,2.32a8.18,8.18,0,0,1,3.23,2,8.08,8.08,0,0,1,2,3.22A5.28,5.28,0,0,1,22,9.14a1,1,0,0,1-.29.73c-1.54,1.55-2.73,2.05-4.4,1.5a5.45,5.45,0,0,0-1.44,3.89c0,2.48-.29,3.79-1.31,4.81h0a2.43,2.43,0,0,1-3.45,0L8.21,17.21,3.77,21.7a1.05,1.05,0,0,1-1.47,0,1,1,0,0,1,0-1.46l4.47-4.47L3.9,12.9a2.41,2.41,0,0,1,0-3.44v0c1-1,4.82-1.31,4.82-1.31a5.41,5.41,0,0,0,3.89-1.4c-.57-1.69,0-2.88,1.5-4.43A1.06,1.06,0,0,1,14.85,2,5.28,5.28,0,0,1,16.44,2.32Z"/></svg>