<svg xmlns="http://www.w3.org/2000/svg" viewBox="0 0 24 24"><title>wifi-fill</title><path fill="#212121" d="M16.11,12.16a1,1,0,0,1-.25,1.37,1,1,0,0,1-1.38-.25,3,3,0,0,0-5,0,1,1,0,0,1-1.42.25,1,1,0,0,1-.25-1.37A5,5,0,0,1,12,10,5,5,0,0,1,16.11,12.16ZM12,6A9.08,9.08,0,0,0,5.07,9.22a1,1,0,0,0,.13,1.4,1,1,0,0,0,1.41-.12A7.06,7.06,0,0,1,12,8a7,7,0,0,1,5.36,2.5,1,1,0,0,0,1.45.12,1,1,0,0,0,.09-1.4A9,9,0,0,0,12,6Zm0-4A13,13,0,0,0,2.25,6.34a1,1,0,0,0,.09,1.44,1,1,0,0,0,1.42-.09,11.06,11.06,0,0,1,16.49,0,1,1,0,0,0,1.41.09,1,1,0,0,0,.09-1.4A13,13,0,0,0,12,2Zm0,11.84A2.57,2.57,0,0,0,9.93,15L7.42,18.62A2,2,0,0,0,9.18,22h5.64a2,2,0,0,0,1.76-3.38L14.07,15A2.54,2.54,0,0,0,12,13.84Z"/></svg>