<svg xmlns="http://www.w3.org/2000/svg" viewBox="0 0 24 24"><title>archive-duotone</title><path fill="currentColor" d="M6,2A4,4,0,0,0,2,6V8A1,1,0,0,0,3,9H21a1,1,0,0,0,1-1V6a4,4,0,0,0-4-4Z"/><path fill="white" fill-opacity="0.5" d="M6,4H18a2,2,0,0,1,2,2V7H4V6A2,2,0,0,1,6,4Z"/><path fill="currentColor" d="M4,11a1,1,0,0,0-1,1v6a3.83,3.83,0,0,0,3.66,4H17.34A3.83,3.83,0,0,0,21,18V12a1,1,0,0,0-2,0v6a1.85,1.85,0,0,1-1.66,2H6.66A1.85,1.85,0,0,1,5,18V12A1,1,0,0,0,4,11Z"/><path fill="currentColor" d="M10.5,12a2.5,2.5,0,0,0,0,5h3a2.5,2.5,0,0,0,0-5Z"/><path fill="white" fill-opacity="0.5" d="M10.5,14h3a.5.5,0,0,1,0,1h-3a.5.5,0,0,1,0-1Z"/></svg>