<svg xmlns="http://www.w3.org/2000/svg" viewBox="0 0 24 24"><title>bluetooth-duotone</title><path fill="currentColor" d="M5.82,7a1,1,0,0,0-.65.4,1,1,0,0,0,.28,1.41l3,2a1,1,0,0,0,1.38-.28,1,1,0,0,0-.29-1.38l-3-2A1,1,0,0,0,5.82,7Z"/><path fill="currentColor" d="M11.54,2.12A1,1,0,0,0,11,3v8.76l-5.53,3.4a1,1,0,0,0-.31,1.38,1,1,0,0,0,1.37.31L11,14.09V21a1,1,0,0,0,1.6.81l5-3.59a2.42,2.42,0,0,0-.22-4.29l-3.19-1.81,3.1-1.91a2.59,2.59,0,0,0,.15-4.53l-4.87-3.5A1,1,0,0,0,11.54,2.12Z"/><path fill="white" fill-opacity="0.5" d="M13,4.93l3.32,2.38c.57.41.57.81,0,1.19l-3.29,2Z"/><path fill="white" fill-opacity="0.5" d="M13,13.72l3.41,1.93c.53.3.53.59,0,.94L13,19.06Z"/></svg>