<svg xmlns="http://www.w3.org/2000/svg" viewBox="0 0 24 24"><title>calendar-duotone</title><path fill="currentColor" d="M3,12a1,1,0,0,0-1,1v5a4,4,0,0,0,4,4H18a4,4,0,0,0,4-4V13a1,1,0,0,0-2,0v5a2,2,0,0,1-2,2H6a2,2,0,0,1-2-2V13A1,1,0,0,0,3,12Z"/><path fill="currentColor" d="M16,13h0a1,1,0,0,1,1,1h0a1,1,0,0,1-1,1h0a1,1,0,0,1-1-1h0A1,1,0,0,1,16,13Z"/><path fill="currentColor" d="M12,13h0a1,1,0,0,1,1,1h0a1,1,0,0,1-1,1h0a1,1,0,0,1-1-1h0A1,1,0,0,1,12,13Z"/><path fill="currentColor" d="M8,13H8a1,1,0,0,1,1,1H9a1,1,0,0,1-1,1H8a1,1,0,0,1-1-1H7A1,1,0,0,1,8,13Z"/><path fill="currentColor" d="M12,16h0a1,1,0,0,1,1,1h0a1,1,0,0,1-1,1h0a1,1,0,0,1-1-1h0A1,1,0,0,1,12,16Z"/><path fill="currentColor" d="M8,16H8a1,1,0,0,1,1,1H9a1,1,0,0,1-1,1H8a1,1,0,0,1-1-1H7A1,1,0,0,1,8,16Z"/><path fill="currentColor" d="M16,16h0a1,1,0,0,1,1,1h0a1,1,0,0,1-1,1h0a1,1,0,0,1-1-1h0A1,1,0,0,1,16,16Z"/><path fill="currentColor" d="M8,2A1,1,0,0,0,7,3H6A4,4,0,0,0,2,7V9a1,1,0,0,0,1,1H21a1,1,0,0,0,1-1V7a4,4,0,0,0-4-4H17a1,1,0,0,0-2,0H9A1,1,0,0,0,8,2Z"/><path fill="white" fill-opacity="0.5" d="M6,5H7A1,1,0,0,0,9,5h6a1,1,0,0,0,2,0h1a2,2,0,0,1,2,2V8H4V7A2,2,0,0,1,6,5Z"/></svg>