<svg xmlns="http://www.w3.org/2000/svg" viewBox="0 0 24 24"><title>camera-duotone</title><path fill="currentColor" d="M9,2a1,1,0,0,0-.84.44L6.44,5H6A4,4,0,0,0,2,9v9a4,4,0,0,0,4,4H18a4,4,0,0,0,4-4V9a4,4,0,0,0-4-4h-.44L15.84,2.44A1,1,0,0,0,15,2Zm3,8a3,3,0,1,1-3,3A3,3,0,0,1,12,10Z"/><path fill="white" fill-opacity="0.5" d="M9.56,4,7.84,6.56A1,1,0,0,1,7,7H6A2,2,0,0,0,4,9v9a2,2,0,0,0,2,2H18a2,2,0,0,0,2-2V9a2,2,0,0,0-2-2H17a1,1,0,0,1-.84-.44L14.44,4ZM12,8a5,5,0,1,1-5,5A5,5,0,0,1,12,8Zm6,0a1,1,0,1,1-1,1A1,1,0,0,1,18,8Z"/></svg>