<svg xmlns="http://www.w3.org/2000/svg" viewBox="0 0 24 24"><title>chat-dots-duotone</title><path fill="currentColor" d="M12,2A10,10,0,0,0,2,12a11.13,11.13,0,0,0,.59,3.39l-.31,1.36c-.84,3.37,1.53,5.81,4.91,5l1.37-.33A10.79,10.79,0,0,0,12,22,10,10,0,0,0,12,2Z"/><path fill="white" fill-opacity="0.5" d="M12,4a8,8,0,0,0-8,8,8.45,8.45,0,0,0,.56,3,.92.92,0,0,1,0,.59l-.37,1.66c-.49,1.93.59,3,2.5,2.53l1.69-.4a.86.86,0,0,1,.59,0A8.47,8.47,0,0,0,12,20,8,8,0,0,0,12,4ZM8,11a1,1,0,1,1-1,1A1,1,0,0,1,8,11Zm4,0a1,1,0,1,1-1,1A1,1,0,0,1,12,11Zm4,0a1,1,0,1,1-1,1A1,1,0,0,1,16,11Z"/></svg>