<svg xmlns="http://www.w3.org/2000/svg" viewBox="0 0 24 24"><title>cloud-download-duotone</title><path fill="currentColor" d="M12,2A6,6,0,0,0,6.06,7.22,5.29,5.29,0,0,0,2,12.37a5.68,5.68,0,0,0,3.72,5.34A1,1,0,0,0,7,17.12a1,1,0,0,0-.63-1.28A3.7,3.7,0,0,1,4,12.37,3.34,3.34,0,0,1,7.09,9.06a1,1,0,0,0,.91-1V8a4,4,0,0,1,8,0v2a1,1,0,0,0,1,1,2.8,2.8,0,0,1,3,2.5,2.64,2.64,0,0,1-2.22,2.41,1,1,0,0,0,.47,2A4.61,4.61,0,0,0,22,13.49a4.65,4.65,0,0,0-4-4.4V8A6,6,0,0,0,12,2Z"/><path fill="currentColor" d="M12,12a1,1,0,0,0-1,1v5.56l-.28-.28a1,1,0,0,0-1.44,1.44l2,2a1,1,0,0,0,1.44,0l2-2a1,1,0,0,0-1.44-1.44l-.28.28V13A1,1,0,0,0,12,12Z"/></svg>