<svg xmlns="http://www.w3.org/2000/svg" viewBox="0 0 24 24"><title>files-duotone</title><path fill="currentColor" d="M10,2A7.4,7.4,0,0,0,3,9v5.69A3.46,3.46,0,0,0,6.56,18H7v.66A3.46,3.46,0,0,0,10.56,22h6.88A3.46,3.46,0,0,0,21,18.66V9.34A3.46,3.46,0,0,0,17.44,6H17V5.34A3.46,3.46,0,0,0,13.44,2ZM9,4.12V6.66a1.22,1.22,0,0,1-.44.93A1.69,1.69,0,0,1,7.44,8H5.12A5.78,5.78,0,0,1,9,4.12ZM17,8h.44A1.46,1.46,0,0,1,19,9.34v9.32A1.46,1.46,0,0,1,17.44,20H10.56A1.46,1.46,0,0,1,9,18.66V18h4.44A3.46,3.46,0,0,0,17,14.66Z"/><path fill="white" fill-opacity="0.5" d="M11,4h2.44A1.46,1.46,0,0,1,15,5.34v9.32A1.46,1.46,0,0,1,13.44,16H6.56A1.46,1.46,0,0,1,5,14.66V10H7.44A3.46,3.46,0,0,0,11,6.66Z"/></svg>