<svg xmlns="http://www.w3.org/2000/svg" viewBox="0 0 24 24"><title>gear-duotone</title><path fill="currentColor" d="M9,2.47A9.74,9.74,0,0,0,5.22,4.63,1,1,0,0,0,5,5.85,2.07,2.07,0,0,1,3.16,9a1,1,0,0,0-.91.78A8.6,8.6,0,0,0,2,12a11.11,11.11,0,0,0,.25,2.16,1,1,0,0,0,.87.78A2.18,2.18,0,0,1,5,18.25a1,1,0,0,0,.22,1.16A9.54,9.54,0,0,0,9,21.53a1,1,0,0,0,1.12-.37c1.12-1.54,2.76-1.58,3.82,0a1,1,0,0,0,1.12.4,9.94,9.94,0,0,0,3.72-2.15A1,1,0,0,0,19,18.19,2.08,2.08,0,0,1,20.81,15a1,1,0,0,0,.94-.75A9,9,0,0,0,22,12a10.28,10.28,0,0,0-.25-2.22,1,1,0,0,0-1-.78A2,2,0,0,1,19,5.85a1,1,0,0,0-.19-1.22A10,10,0,0,0,15,2.47a1,1,0,0,0-1.13.41,2.1,2.1,0,0,1-3.72,0A1,1,0,0,0,9,2.47ZM12,10a2,2,0,1,1-2,2A2,2,0,0,1,12,10Z"/><path fill="white" fill-opacity="0.5" d="M8.94,4.6A6.74,6.74,0,0,0,7.09,5.66a4,4,0,0,1-3,5.25,7.59,7.59,0,0,0,0,2.15,4.05,4.05,0,0,1,3,5.32,7.1,7.1,0,0,0,1.85,1,4,4,0,0,1,6.09,0,6.28,6.28,0,0,0,1.82-1,4,4,0,0,1,3.06-5.29,6.74,6.74,0,0,0,0-2.15,4,4,0,0,1-3.06-5.28A6.91,6.91,0,0,0,15,4.6,4,4,0,0,1,8.94,4.6ZM12,8a4,4,0,1,1-4,4A4,4,0,0,1,12,8Z"/></svg>