<svg xmlns="http://www.w3.org/2000/svg" viewBox="0 0 24 24"><title>globe-duotone</title><path fill="currentColor" d="M12,2A10,10,0,1,0,22,12,10,10,0,0,0,12,2Z"/><path fill="white" fill-opacity="0.5" d="M12,4c1.32,0,2.76,3,3,7L9,11C9.25,7,10.68,4,12,4Z"/><path fill="white" fill-opacity="0.5" d="M8.44,4.83A15.79,15.79,0,0,0,7,11h-3A8.05,8.05,0,0,1,8.44,4.83Z"/><path fill="white" fill-opacity="0.5" d="M15.55,4.83A8.06,8.06,0,0,1,19.94,11H17A15.74,15.74,0,0,0,15.55,4.83Z"/><path fill="white" fill-opacity="0.5" d="M4.06,13H7a15.92,15.92,0,0,0,1.43,6.16A8,8,0,0,1,4.06,13Z"/><path fill="white" fill-opacity="0.5" d="M9,13h6c-.22,4-1.65,7-3,7S9.24,17,9,13Z"/><path fill="white" fill-opacity="0.5" d="M17,13h3a8.07,8.07,0,0,1-4.37,6.16A16.06,16.06,0,0,0,17,13Z"/></svg>