<svg xmlns="http://www.w3.org/2000/svg" viewBox="0 0 24 24"><title>house-duotone</title><path fill="currentColor" d="M12,2.25A3.9,3.9,0,0,0,9.28,3.31L3,9.59A3.71,3.71,0,0,0,2,12v8a2,2,0,0,0,2,2H8.19A2.81,2.81,0,0,0,11,19.19V15h2v4.19A2.81,2.81,0,0,0,15.81,22H20a2,2,0,0,0,2-2V12a3.71,3.71,0,0,0-1-2.38L14.78,3.38A3.92,3.92,0,0,0,12,2.25Z"/><path fill="white" fill-opacity="0.5" d="M12,4.25a2.06,2.06,0,0,1,1.38.53L19.59,11A1.73,1.73,0,0,1,20,12v8a0,0,0,0,1,0,0H15.81a.81.81,0,0,1-.81-.81V14.94A1.93,1.93,0,0,0,13.06,13H10.94A1.93,1.93,0,0,0,9,14.94v4.25a.81.81,0,0,1-.81.81H4a0,0,0,0,1,0,0V12a1.73,1.73,0,0,1,.41-1l6.28-6.28A1.83,1.83,0,0,1,12,4.25Z"/></svg>