<svg xmlns="http://www.w3.org/2000/svg" viewBox="0 0 24 24"><title>list-ul-duotone</title><path fill="currentColor" d="M6,2A4,4,0,0,0,2,6V18a4,4,0,0,0,4,4H18a4,4,0,0,0,4-4V6a4,4,0,0,0-4-4Z"/><path fill="white" fill-opacity="0.5" d="M6,4A2,2,0,0,0,4,6V18a2,2,0,0,0,2,2H18a2,2,0,0,0,2-2V6a2,2,0,0,0-2-2ZM7,6A1,1,0,1,1,6,7,1,1,0,0,1,7,6Zm3,0h7a1,1,0,0,1,0,2H10a1,1,0,0,1,0-2ZM7,11a1,1,0,1,1-1,1A1,1,0,0,1,7,11Zm3,0h7a1,1,0,0,1,0,2H10a1,1,0,0,1,0-2ZM7,16a1,1,0,1,1-1,1A1,1,0,0,1,7,16Zm3,0h7a1,1,0,0,1,0,2H10a1,1,0,0,1,0-2Z"/></svg>