<svg xmlns="http://www.w3.org/2000/svg" viewBox="0 0 24 24"><title>lock-duotone</title><path fill="currentColor" d="M12,2A6,6,0,0,0,6.12,6.84,1,1,0,0,0,6.91,8a1,1,0,0,0,1.15-.78,4,4,0,0,1,7.88,0A1,1,0,0,0,17.09,8a1,1,0,0,0,.79-1.16A6,6,0,0,0,12,2Z"/><path fill="currentColor" d="M5,9a3,3,0,0,0-3,3v7a3,3,0,0,0,3,3H19a3,3,0,0,0,3-3V12a3,3,0,0,0-3-3Zm7,5a1,1,0,0,1,1,1v1a1,1,0,0,1-2,0V15A1,1,0,0,1,12,14Z"/><path fill="white" fill-opacity="0.5" d="M5,11a1,1,0,0,0-1,1v7a1,1,0,0,0,1,1H19a1,1,0,0,0,1-1V12a1,1,0,0,0-1-1Zm7,1a3,3,0,0,1,3,3v1a3,3,0,0,1-6,0V15A3,3,0,0,1,12,12Z"/></svg>