<svg xmlns="http://www.w3.org/2000/svg" viewBox="0 0 24 24"><title>mail-duotone</title><path fill="currentColor" d="M3,12a1,1,0,0,0-1,1v5a4,4,0,0,0,4,4H18a4,4,0,0,0,4-4V13a1,1,0,0,0-2,0v5a2,2,0,0,1-2,2H6a2,2,0,0,1-2-2V13A1,1,0,0,0,3,12Z"/><path fill="currentColor" d="M6,3A4,4,0,0,0,2,7c0,.39.12.64.67,1.23a38.81,38.81,0,0,0,7.58,6.2A4,4,0,0,0,12,15a3.78,3.78,0,0,0,1.58-.48,38.1,38.1,0,0,0,7.7-6.22A2.08,2.08,0,0,0,22,7a4,4,0,0,0-4-4Z"/><path fill="white" fill-opacity="0.5" d="M6,5H18a2,2,0,0,1,2,1.75c-.17.2-.53.57-.84.88-.71.7-1.61,1.52-2.55,2.31C14.44,11.76,12.54,13,12,13S9.56,11.76,7.41,9.94c-.94-.79-1.86-1.65-2.57-2.35-.31-.31-.64-.65-.82-.85A2,2,0,0,1,6,5Z"/></svg>