<svg xmlns="http://www.w3.org/2000/svg" viewBox="0 0 24 24"><title>nut-duotone</title><path fill="currentColor" d="M12,2.12a2.7,2.7,0,0,0-1.25.26L4.38,5.56A2.64,2.64,0,0,0,3,7.78V16a2.64,2.64,0,0,0,1.38,2.22l6.37,3.19a3,3,0,0,0,2.5,0l6.37-3.19A2.64,2.64,0,0,0,21,16V7.78a2.64,2.64,0,0,0-1.38-2.22L13.25,2.38A2.7,2.7,0,0,0,12,2.12Zm0,6.76a3,3,0,1,1-3,3A3,3,0,0,1,12,8.88Z"/><path fill="white" fill-opacity="0.5" d="M11.62,4.19,5.25,7.38a.66.66,0,0,0-.25.4V16a.71.71,0,0,0,.25.41l6.37,3.18a1.23,1.23,0,0,0,.76,0l6.37-3.18A.71.71,0,0,0,19,16V7.78a.66.66,0,0,0-.25-.4L12.38,4.19A1.23,1.23,0,0,0,11.62,4.19ZM12,6.88a5,5,0,1,1-5,5A5,5,0,0,1,12,6.88Z"/></svg>