<svg xmlns="http://www.w3.org/2000/svg" viewBox="0 0 24 24"><title>paperclip2-duotone</title><path fill="currentColor" d="M14.85,2a1.05,1.05,0,0,0-.72.31c-1.59,1.51-2.06,2.8-1.49,4.53a5.69,5.69,0,0,1-3.92,1.3c-2.45,0-3.92.34-4.84,1.32a2.45,2.45,0,0,0,0,3.45l2.89,2.87L2.3,20.29a1,1,0,0,0,0,1.43,1,1,0,0,0,1.42,0L8.2,17.2l2.87,2.87a2.39,2.39,0,0,0,3.42,0c1-1,1.36-2.34,1.36-4.83a5.64,5.64,0,0,1,1.32-3.92c1.68.55,2.94.19,4.5-1.46A1.11,1.11,0,0,0,22,9.16a5.55,5.55,0,0,0-.32-1.63,8.19,8.19,0,0,0-2-3.19,8.21,8.21,0,0,0-3.22-2A5.2,5.2,0,0,0,14.85,2Z"/><path fill="white" fill-opacity="0.5" d="M15.21,4.06A6.43,6.43,0,0,1,20,8.77a1.89,1.89,0,0,1-2.61.49,1,1,0,0,0-1.17.21,7.6,7.6,0,0,0-2.32,5.83c0,2-.18,2.78-.71,3.34a.43.43,0,0,1-.62.05l-7.23-7.2a.44.44,0,0,1,0-.61c.44-.52,1.33-.76,3.43-.74a7.59,7.59,0,0,0,5.71-2.25,1,1,0,0,0,.28-1.23C14.12,5.39,14.39,5,15.21,4.06Z"/></svg>