<svg xmlns="http://www.w3.org/2000/svg" viewBox="0 0 24 24"><title>scissors-duotone</title><path fill="currentColor" d="M6,3a4,4,0,0,0,0,8,4.06,4.06,0,0,0,2.66-1l2.68,2L8.66,14A4.06,4.06,0,0,0,6,13a4,4,0,1,0,4,4,4.23,4.23,0,0,0-.23-1.34L21.59,6.81a1,1,0,0,0,.22-1.4A1.07,1.07,0,0,0,21.15,5a1,1,0,0,0-.75.19L13,10.75,9.77,8.33A4.22,4.22,0,0,0,10,7,4,4,0,0,0,6,3Z"/><path fill="white" fill-opacity="0.5" d="M6,5A2,2,0,1,1,4,7,2,2,0,0,1,6,5Z"/><path fill="white" fill-opacity="0.5" d="M6,15a2,2,0,1,1-2,2A2,2,0,0,1,6,15Z"/><path fill="currentColor" d="M15.53,13a1,1,0,0,0-.66.41,1,1,0,0,0,.19,1.37l5.34,4a1,1,0,1,0,1.19-1.62l-5.34-4A.93.93,0,0,0,15.53,13Z"/></svg>