<svg xmlns="http://www.w3.org/2000/svg" viewBox="0 0 24 24"><title>share-duotone</title><path fill="currentColor" d="M18,2a4,4,0,0,0-4,4,4.6,4.6,0,0,0,.08.84L9,9.38a4,4,0,1,0,0,5.24l5.07,2.54A4.6,4.6,0,0,0,14,18a4,4,0,1,0,1-2.62L9.92,12.84a4.19,4.19,0,0,0,0-1.68L15,8.61A4,4,0,1,0,18,2Z"/><path fill="white" fill-opacity="0.5" d="M18,4a2,2,0,1,1-2,2A2,2,0,0,1,18,4Z"/><path fill="white" fill-opacity="0.5" d="M6,10a2,2,0,1,1-2,2A2,2,0,0,1,6,10Z"/><path fill="white" fill-opacity="0.5" d="M18,16a2,2,0,1,1-2,2A2,2,0,0,1,18,16Z"/></svg>