<svg xmlns="http://www.w3.org/2000/svg" viewBox="0 0 24 24"><title>sliders-duotone</title><path fill="currentColor" d="M16,2a4,4,0,0,0-3.88,3H3A1,1,0,0,0,3,7h9.13a4,4,0,0,0,7.74,0H21a1,1,0,0,0,0-2H19.86A4,4,0,0,0,16,2Z"/><path fill="white" fill-opacity="0.5" d="M16,4a2,2,0,1,1-2,2A2,2,0,0,1,16,4Z"/><path fill="currentColor" d="M8,8a4,4,0,0,0-3.87,3H3a1,1,0,0,0,0,2H4.13A4,4,0,0,0,8,16a4,4,0,0,0,3.87-3H21a1,1,0,0,0,0-2H11.87A4,4,0,0,0,8,8Z"/><path fill="white" fill-opacity="0.5" d="M8,10a2,2,0,1,1-2,2A2,2,0,0,1,8,10Z"/><path fill="currentColor" d="M16,14a4,4,0,0,0-3.88,3H3a1,1,0,0,0,0,2h9.12a4,4,0,0,0,7.75,0H21a1,1,0,0,0,0-2H19.86A4,4,0,0,0,16,14Z"/><path fill="white" fill-opacity="0.5" d="M16,16a2,2,0,1,1-2,2A2,2,0,0,1,16,16Z"/></svg>