<svg xmlns="http://www.w3.org/2000/svg" viewBox="0 0 24 24"><title>trash-duotone</title><path fill="currentColor" d="M10,11.09a1,1,0,0,0-1,1V17a1,1,0,0,0,2,0V12.09A1,1,0,0,0,10,11.09Z"/><path fill="currentColor" d="M14,11.09a1,1,0,0,0-1,1V17a1,1,0,0,0,2,0V12.09A1,1,0,0,0,14,11.09Z"/><path fill="currentColor" d="M6,11a1,1,0,0,0-1,1v6a4,4,0,0,0,4,4h6a4,4,0,0,0,4-4V12a1,1,0,0,0-2,0v6a2,2,0,0,1-2,2H9a2,2,0,0,1-2-2V12A1,1,0,0,0,6,11Z"/><path fill="currentColor" d="M7,2A4.19,4.19,0,0,0,3,6.19V8A1,1,0,0,0,4,9H20a1,1,0,0,0,1-1V6a4,4,0,0,0-4-4Z"/><path fill="white" fill-opacity="0.5" d="M7,4H17a2,2,0,0,1,2,2V7H5V6.19A2.19,2.19,0,0,1,7,4Z"/></svg>