<svg xmlns="http://www.w3.org/2000/svg" viewBox="0 0 24 24"><title>x-square-duotone</title><path fill="currentColor" d="M6,2A4,4,0,0,0,2,6V18a4,4,0,0,0,4,4H18a4,4,0,0,0,4-4V6a4,4,0,0,0-4-4Z"/><path fill="white" fill-opacity="0.5" d="M6,4H18a2,2,0,0,1,2,2V18a2,2,0,0,1-2,2H6a2,2,0,0,1-2-2V6A2,2,0,0,1,6,4Z"/><path fill="currentColor" d="M8,7a1,1,0,0,0-.72,1.72L10.56,12,7.28,15.28a1,1,0,1,0,1.44,1.44L12,13.44l3.28,3.28a1,1,0,1,0,1.44-1.44L13.44,12l3.28-3.28a1,1,0,0,0-1.44-1.44L12,10.56,8.72,7.28A1,1,0,0,0,8,7Z"/></svg>